Coordinates
version=1
nRows=10
nColumns=34
inDegrees=yes

Units are S.I. units (second, meters, Newtons, ...)
Angles are in degrees.

endheader
time	pelvis_tilt	pelvis_list	pelvis_rotation	pelvis_tx	pelvis_ty	pelvis_tz	hip_flexion_r	hip_adduction_r	hip_rotation_r	knee_angle_r	ankle_angle_r	subtalar_angle_r	mtp_angle_r	hip_flexion_l	hip_adduction_l	hip_rotation_l	knee_angle_l	socket_flexion	socket_adduction	socket_rotation	socket_tx	socket_ty	socket_tz	pros_ankle_rx	pros_ankle_ry	pros_ankle_rz	pros_ankle_tx	pros_ankle_ty	pros_ankle_tz	foot_flex	lumbar_extension	lumbar_bending	lumbar_rotation
      0.30000000	      6.06002806	     -0.35282671	     -5.12904177	     -0.37363395	      1.06173433	      0.35651121	      4.33634918	     -5.11279874	     -5.13288555	    -63.00231523	     -2.37850710	     12.64229957	     19.80995994	     -9.38789819	      2.19329157	     -2.91847517	     13.14846810	     20.21771436	      0.00000000	      0.00000000	      0.00000000	      0.00000000	      0.00000000	      0.00000000	      0.00000000	      0.00000000	      0.00000000	      0.00000000	      0.00000000	      6.55304566	    -13.50625864	    -10.23122134	    -17.18794806
      0.30416667	      6.11102079	     -0.53476189	     -4.99627516	     -0.36830816	      1.06239502	      0.35607942	      4.83086481	     -4.87242460	     -5.24384882	    -62.98109743	     -1.35396902	     12.70745225	     19.86286002	     -9.81250163	      2.03130533	     -2.83865459	     13.13984874	     20.09514504	      0.00000000	      0.00000000	      0.00000000	      0.00000000	      0.00000000	      0.00000000	      0.00000000	      0.00000000	      0.00000000	      0.00000000	      0.00000000	      6.66461095	    -13.53745441	     -9.98569722	    -17.37408255
      0.30833333	      6.16390749	     -0.70665766	     -4.86836656	     -0.36301039	      1.06303305	      0.35564340	      5.32068877	     -4.65673818	     -5.37757836	    -62.91033834	     -0.38451779	     12.78742112	     19.90724233	    -10.23188713	      1.88278995	     -2.78262554	     13.12979672	     19.98064451	      0.00000000	      0.00000000	      0.00000000	      0.00000000	      0.00000000	      0.00000000	      0.00000000	      0.00000000	      0.00000000	      0.00000000	      0.00000000	      6.79729996	    -13.56154356	     -9.72528156	    -17.56475582
      0.31250000	      6.20697572	     -0.88308726	     -4.74390560	     -0.35775522	      1.06364566	      0.35525130	      5.81756081	     -4.43205283	     -5.51686825	    -62.79098595	      0.52334371	     12.89984196	     19.93630741	    -10.63848376	      1.72016316	     -2.70454095	     13.12087528	     19.86845414	      0.00000000	      0.00000000	      0.00000000	      0.00000000	      0.00000000	      0.00000000	      0.00000000	      0.00000000	      0.00000000	      0.00000000	      0.00000000	      6.90231636	    -13.57977096	     -9.48448603	    -17.76254987
      0.31666667	      6.24734901	     -1.05999118	     -4.63065414	     -0.35251664	      1.06425016	      0.35484906	      6.30865537	     -4.22653833	     -5.68745954	    -62.60824961	      1.35312540	     12.99117532	     19.96057621	    -11.03125599	      1.56169923	     -2.66332067	     13.09203241	     19.76019530	      0.00000000	      0.00000000	      0.00000000	      0.00000000	      0.00000000	      0.00000000	      0.00000000	      0.00000000	      0.00000000	      0.00000000	      0.00000000	      7.02324650	    -13.60596399	     -9.23975369	    -17.93645384
      0.32083333	      6.29374432	     -1.23026787	     -4.46368599	     -0.34725908	      1.06478276	      0.35432815	      6.76672140	     -4.05356031	     -5.92828843	    -62.38076223	      2.28556706	     13.41181772	     19.73718917	    -11.48250765	      1.39985971	     -2.51792834	     13.22978427	     19.74693475	      0.00000000	      0.00000000	      0.00000000	      0.00000000	      0.00000000	      0.00000000	      0.00000000	      0.00000000	      0.00000000	      0.00000000	      0.00000000	      7.11471509	    -13.62753820	     -8.96942548	    -18.31754306
      0.32500000	      6.32278039	     -1.41501592	     -4.35580372	     -0.34216342	      1.06536891	      0.35396708	      7.25400802	     -3.80799902	     -6.06563057	    -62.08493453	      3.04346423	     13.41129189	     19.73713064	    -11.82444684	      1.22580152	     -2.48849555	     13.12509352	     19.59092210	      0.00000000	      0.00000000	      0.00000000	      0.00000000	      0.00000000	      0.00000000	      0.00000000	      0.00000000	      0.00000000	      0.00000000	      0.00000000	      7.23085623	    -13.65621072	     -8.70126087	    -18.41272679
      0.32916667	      6.33688162	     -1.59413225	     -4.25380533	     -0.33704844	      1.06591627	      0.35362185	      7.74318759	     -3.58880424	     -6.23880909	    -61.72854107	      3.67815534	     13.43513600	     19.74380924	    -12.15387708	      1.06141982	     -2.49289285	     13.03909305	     19.45522844	      0.00000000	      0.00000000	      0.00000000	      0.00000000	      0.00000000	      0.00000000	      0.00000000	      0.00000000	      0.00000000	      0.00000000	      0.00000000	      7.34557863	    -13.68603359	     -8.48645838	    -18.52070226
      0.33333333	      6.34975129	     -1.79609614	     -4.13159750	     -0.33200460	      1.06646427	      0.35324802	      8.21217667	     -3.31666907	     -6.39466771	    -61.31954887	      4.44009480	     13.52253412	     19.72554177	    -12.47803173	      0.85670227	     -2.42264300	     12.95539384	     19.32361693	      0.00000000	      0.00000000	      0.00000000	      0.00000000	      0.00000000	      0.00000000	      0.00000000	      0.00000000	      0.00000000	      0.00000000	      0.00000000	      7.45182612	    -13.69318597	     -8.14989569	    -18.70621514
      0.33750000	      6.35799327	     -1.98283494	     -4.01718377	     -0.32697011	      1.06696602	      0.35289653	      8.68070780	     -3.08236953	     -6.58367390	    -60.86202061	      5.06322248	     13.60004537	     19.69735859	    -12.79297914	      0.67506910	     -2.39558879	     12.87505098	     19.19572153	      0.00000000	      0.00000000	      0.00000000	      0.00000000	      0.00000000	      0.00000000	      0.00000000	      0.00000000	      0.00000000	      0.00000000	      0.00000000	      7.56568844	    -13.71088332	     -7.89743922	    -18.86072728
